# xmcd CD database file generated by OrangeCD 5.2
#
# Track frame offsets:
#	150
#	43052
#	86586
#	146738
#	181932
#	227704
#	230338
#
# Disc length: 3626 seconds
#
# Revision: 0
# Processed by: cddbd v1.5.1PL0 Copyright (c) Steve Scherf et al.
# Submitted via: OrangeCD 5.2
#
DISCID=560e2807
DTITLE=Pat Metheny - Pat Metheny Trio
DYEAR=1900
DGENRE=Jazz
TTITLE0=Number 13
TTITLE1=Number 10
TTITLE2=All The Things You Are
TTITLE3=Unity Village
TTITLE4=Old Folks
TTITLE5=Pat's Remarks
TTITLE6=Lone Jack
EXTD=
EXTT0=
EXTT1=
EXTT2=
EXTT3=
EXTT4=
EXTT5=
EXTT6=
PLAYORDER=
